<svg width="31" height="35" viewBox="0 0 31 35" fill="none" xmlns="http://www.w3.org/2000/svg">
<path d="M25.3999 22.0949C25.3999 23.3979 25.564 24.6713 26.2628 25.755L26.7292 26.4775C27.4377 27.5727 26.6755 29.0408 25.3999 29.0408H2.6012C1.32558 29.0408 0.561826 27.5727 1.27195 26.4775L1.73833 25.755C2.4387 24.6713 2.6012 23.3996 2.6012 22.0965V15.8451C2.63857 10.4167 7.35594 5.93508 12.7899 5.94827L15.1722 5.95322C18.2622 5.96072 21.1241 7.40297 23.0302 9.64425M18.8756 29.0408C18.8756 30.3532 18.3619 31.6118 17.4477 32.5398C16.5335 33.4678 15.2935 33.9892 14.0006 33.9892C12.7076 33.9892 11.4677 33.4678 10.5534 32.5398C9.63918 31.6118 9.12557 30.3532 9.12557 29.0408" stroke="#333333" stroke-width="1.08333" stroke-linecap="round" stroke-linejoin="round"/>
<path d="M14.0005 1C14.8625 1 15.6891 1.34757 16.2986 1.96624C16.9081 2.58491 17.2505 3.424 17.2505 4.29893V5.9484H10.7505V4.29893C10.7505 3.424 11.093 2.58491 11.7024 1.96624C12.3119 1.34757 13.1386 1 14.0005 1Z" stroke="#333333" stroke-width="1.08333" stroke-linecap="round" stroke-linejoin="round"/>
<path d="M31 10.5C31 14.6421 27.6421 18 23.5 18C19.3579 18 16 14.6421 16 10.5C16 6.35786 19.3579 3 23.5 3C27.6421 3 31 6.35786 31 10.5ZM20.3157 10.5C20.3157 12.2586 21.7414 13.6843 23.5 13.6843C25.2586 13.6843 26.6843 12.2586 26.6843 10.5C26.6843 8.74138 25.2586 7.31574 23.5 7.31574C21.7414 7.31574 20.3157 8.74138 20.3157 10.5Z" fill="#E46258"/>
</svg>
