<svg width="30" height="30" viewBox="0 0 30 30" fill="none" xmlns="http://www.w3.org/2000/svg">
<path d="M30 0H0V30H30V0Z" fill="white" fill-opacity="0.01"/>
<path d="M11.4274 26.982C9.33294 26.3585 7.46863 25.2008 5.99242 23.6668C6.54313 23.0141 6.875 22.1708 6.875 21.25C6.875 19.179 5.19607 17.5 3.125 17.5C2.99972 17.5 2.87587 17.5061 2.75374 17.5181C2.58737 16.7048 2.5 15.8626 2.5 15C2.5 13.6934 2.70048 12.4336 3.07237 11.2496C3.08988 11.2499 3.10743 11.25 3.125 11.25C5.19607 11.25 6.875 9.57108 6.875 7.50002C6.875 6.90545 6.73663 6.3432 6.49038 5.84376C7.93594 4.49962 9.70031 3.4937 11.6576 2.9519C12.2778 4.16756 13.5417 5.00002 15 5.00002C16.4583 5.00002 17.7223 4.16756 18.3424 2.9519C20.2997 3.4937 22.0641 4.49962 23.5096 5.84376C23.2634 6.3432 23.125 6.90545 23.125 7.50002C23.125 9.57108 24.8039 11.25 26.875 11.25C26.8926 11.25 26.9101 11.2499 26.9276 11.2496C27.2995 12.4336 27.5 13.6934 27.5 15C27.5 15.8626 27.4126 16.7048 27.2463 17.5181C27.1241 17.5061 27.0003 17.5 26.875 17.5C24.8039 17.5 23.125 19.179 23.125 21.25C23.125 22.1708 23.4569 23.0141 24.0076 23.6668C22.5314 25.2008 20.6671 26.3585 18.5726 26.982C18.0893 25.4699 16.6725 24.375 15 24.375C13.3275 24.375 11.9108 25.4699 11.4274 26.982Z" stroke="#333333" stroke-width="0.916667" stroke-linejoin="round"/>
<path d="M15 19.375C17.4163 19.375 19.375 17.4163 19.375 15C19.375 12.5838 17.4163 10.625 15 10.625C12.5838 10.625 10.625 12.5838 10.625 15C10.625 17.4163 12.5838 19.375 15 19.375Z" stroke="#333333" stroke-width="0.916667" stroke-linejoin="round"/>
</svg>
