<svg width="30" height="30" viewBox="0 0 30 30" fill="none" xmlns="http://www.w3.org/2000/svg">
<path d="M30 0H0V30H30V0Z" fill="white" fill-opacity="0.01"/>
<path d="M11.875 12.5C14.2912 12.5 16.25 10.5412 16.25 8.125C16.25 5.70876 14.2912 3.75 11.875 3.75C9.45875 3.75 7.5 5.70876 7.5 8.125C7.5 10.5412 9.45875 12.5 11.875 12.5Z" stroke="#333333" stroke-width="0.648649" stroke-linecap="round" stroke-linejoin="round"/>
<path d="M20.3798 4.375C21.6503 5.14056 22.5001 6.53356 22.5001 8.125C22.5001 9.71644 21.6503 11.1094 20.3798 11.875" stroke="#333333" stroke-width="0.648649" stroke-linecap="round" stroke-linejoin="round"/>
<path d="M2.5 25.5V26.25H21.25V25.5C21.25 22.6997 21.25 21.2996 20.7051 20.2301C20.2257 19.2892 19.4608 18.5243 18.5199 18.0449C17.4504 17.5 16.0503 17.5 13.25 17.5H10.5C7.69975 17.5 6.29963 17.5 5.23005 18.0449C4.28924 18.5243 3.52433 19.2892 3.04497 20.2301C2.5 21.2996 2.5 22.6997 2.5 25.5Z" stroke="#333333" stroke-width="0.648649" stroke-linecap="round" stroke-linejoin="round"/>
<path d="M27.5 26.25V25.5C27.5 22.6997 27.5 21.2996 26.955 20.23C26.4756 19.2892 25.7107 18.5243 24.7699 18.0449" stroke="#333333" stroke-width="0.648649" stroke-linecap="round" stroke-linejoin="round"/>
</svg>
